# Aspose.3D Wavefront OBJ Exporter
# Copyright 2004-2024 Aspose Pty Ltd.
# File created: 03/12/2024 01:30:43

mtllib material.lib
g Node #0

#
# object Node #0
#

v -0.07910115 0.056766108 0.25930664
v -0.14835455 0.08226599 0.24303083
v -0.009847764 0.031266227 0.24303083
v -0.14835455 0.08226599 0.24303083
v 0.03826763 0.37552005 0.25930664
v -0.009847764 0.031266227 0.24303083
v -0.14835455 0.08226598 0.27558246
v -0.14835455 0.08226598 0.27558246
v 0.03826763 0.37552005 0.25930664
v -0.14835455 0.08226599 0.24303083
v -0.07910115 0.056766108 0.25930664
v -0.009847737 0.03126622 0.27558246
v -0.14835455 0.08226598 0.27558246
v -0.009847737 0.03126622 0.27558246
v 0.03826763 0.37552005 0.25930664
v -0.14835455 0.08226598 0.27558246
v -0.009847764 0.031266227 0.24303083
v -0.009847764 0.031266227 0.24303083
v 0.03826763 0.37552005 0.25930664
v -0.009847737 0.03126622 0.27558246
# 20 vertices

vn -0.345532 -0.93840694 0
vn -0.345532 -0.93840694 0
vn -0.345532 -0.93840694 0
vn 0.09923335 0.26950115 -0.95787364
vn 0.09923335 0.26950115 -0.95787364
vn 0.09923335 0.26950115 -0.95787364
vn -0.345532 -0.93840694 0
vn -0.79964197 0.60047716 6.244191E-08
vn -0.79964197 0.60047716 6.244191E-08
vn -0.79964197 0.6004771 6.244191E-08
vn -0.345532 -0.93840694 0
vn -0.345532 -0.93840694 0
vn -0.345532 -0.93840694 0
vn 0.09923359 0.26950106 0.95787364
vn 0.09923359 0.26950106 0.95787364
vn 0.09923358 0.26950103 0.95787364
vn -0.345532 -0.93840694 0
vn 0.9981087 -0.061474778 -1.873258E-07
vn 0.9981087 -0.061474778 -1.873258E-07
vn 0.9981087 -0.061474778 -1.873258E-07
# 20 vertex normals

vt 0.56470406 -0.12400176 0
vt 0.69371283 -0.22646394 0
vt 0.47005293 -0.26117256 0
vt 0.69371283 -0.22646394 0
vt 0.7037653 -0.99977577 0
vt 0.47005293 -0.26117256 0
vt 0.66810143 -0.00022429228 0
vt 0.23386869 -0.7388275 0
vt 0.00015620887 -0.00022435188 0
vt 0.44298106 -0.6342415 0
vt 0.13921759 -0.87599826 0
vt 0.010208756 -0.7735362 0
vt 0.23386869 -0.7388275 0
vt 0.010208756 -0.7735362 0
vt 0.00015620887 -0.00022435188 0
vt 0.23386869 -0.7388275 0
vt 0.03582011 -0.99977565 0
vt 0.47005293 -0.26117256 0
vt 0.7037653 -0.99977577 0
vt 0.26094055 -0.36575833 0
# 20 texture coords

usemtl mat_21749589
s 1
f 1/1/1 2/2/2 3/3/3
f 4/4/4 5/5/5 6/6/6
f 1/1/1 7/7/7 2/2/2
f 8/8/8 9/9/9 10/10/10
f 11/11/11 12/12/12 13/13/13
f 14/14/14 15/15/15 16/16/16
f 11/11/11 17/17/17 12/12/12
f 18/18/18 19/19/19 20/20/20
#8 polygons

g Node #1

#
# object Node #1
#

v -0.08710384 -0.05749511 0.26532814
v -0.15635723 -0.08299499 0.24905233
v -0.017850447 -0.031995233 0.24905233
v -0.15635723 -0.08299499 0.24905233
v 0.030264946 -0.37624905 0.26532814
v -0.017850447 -0.031995233 0.24905233
v -0.15635723 -0.08299499 0.28160396
v -0.15635723 -0.08299499 0.28160396
v 0.030264946 -0.37624905 0.26532814
v -0.15635723 -0.08299499 0.24905233
v -0.08710384 -0.05749511 0.26532814
v -0.01785042 -0.031995222 0.28160396
v -0.15635723 -0.08299499 0.28160396
v -0.01785042 -0.031995222 0.28160396
v 0.030264946 -0.37624905 0.26532814
v -0.15635723 -0.08299499 0.28160396
v -0.017850447 -0.031995233 0.24905233
v -0.017850447 -0.031995233 0.24905233
v 0.030264946 -0.37624905 0.26532814
v -0.01785042 -0.031995222 0.28160396
# 20 vertices

vn 0.345532 -0.93840694 0
vn 0.345532 -0.93840694 0
vn 0.345532 -0.93840694 0
vn -0.09923335 0.26950115 0.95787364
vn -0.09923335 0.26950115 0.95787364
vn -0.09923335 0.26950115 0.95787364
vn 0.345532 -0.93840694 0
vn 0.79964197 0.60047716 -6.244191E-08
vn 0.79964197 0.60047716 -6.244191E-08
vn 0.79964197 0.6004771 -6.244191E-08
vn 0.345532 -0.93840694 0
vn 0.345532 -0.93840694 0
vn 0.345532 -0.93840694 0
vn -0.09923359 0.26950106 -0.95787364
vn -0.09923359 0.26950106 -0.95787364
vn -0.099233575 0.26950103 -0.95787364
vn 0.345532 -0.93840694 0
vn -0.9981087 -0.061474767 1.873258E-07
vn -0.9981087 -0.061474767 1.873258E-07
vn -0.9981087 -0.061474767 1.873258E-07
# 20 vertex normals

vt 0.56470406 -0.12400176 0
vt 0.69371283 -0.22646394 0
vt 0.47005293 -0.26117256 0
vt 0.69371283 -0.22646394 0
vt 0.7037653 -0.99977577 0
vt 0.47005293 -0.26117256 0
vt 0.66810143 -0.00022429228 0
vt 0.23386869 -0.7388275 0
vt 0.00015620887 -0.00022435188 0
vt 0.44298106 -0.6342415 0
vt 0.13921759 -0.87599826 0
vt 0.010208756 -0.7735362 0
vt 0.23386869 -0.7388275 0
vt 0.010208756 -0.7735362 0
vt 0.00015620887 -0.00022435188 0
vt 0.23386869 -0.7388275 0
vt 0.03582011 -0.99977565 0
vt 0.47005293 -0.26117256 0
vt 0.7037653 -0.99977577 0
vt 0.26094055 -0.36575833 0
# 20 texture coords

usemtl mat_5316987
s 2
f 21/21/21 22/22/22 23/23/23
f 24/24/24 25/25/25 26/26/26
f 21/21/21 27/27/27 22/22/22
f 28/28/28 29/29/29 30/30/30
f 31/31/31 32/32/32 33/33/33
f 34/34/34 35/35/35 36/36/36
f 31/31/31 37/37/37 32/32/32
f 38/38/38 39/39/39 40/40/40
#8 polygons

g node_id3

#
# object node_id3
#

v 0.07500697 0.038175277 0.30881286
v 0.13209997 0.040220026 0.29090616
v 0.022114234 0.050613265 0.30881286
v 0.07500697 0.038175277 0.30881286
v 0.022114234 0.050613265 0.30881286
v 0.04388137 -0.041124977 0.30881286
v 0.04388137 -0.041124977 0.30881286
v 0.19239794 0.005854419 0.34385636
v 0.07500697 0.038175277 0.30881286
v 0.13322777 -0.035058506 0.2933331
v 0.19239794 0.005854419 0.34385636
v 0.04388137 -0.041124977 0.30881286
v 0.13322777 -0.035058506 0.2933331
v 0.04388137 -0.041124977 0.30881286
v -0.06669129 -0.1012665 0.28304437
v 0.13322777 -0.035058506 0.2933331
v -0.06669129 -0.1012665 0.28304437
v -0.030397449 -0.11674952 0.21627012
v 0.038631495 -0.068309315 0.17795877
v 0.13322777 -0.035058506 0.2933331
v -0.030397449 -0.11674952 0.21627012
v 0.0402809 -0.036140848 0.115129985
v 0.038631495 -0.068309315 0.17795877
v -0.030397449 -0.11674952 0.21627012
v -0.11470035 -0.061892036 0.115129985
v 0.0402809 -0.036140848 0.115129985
v -0.030397449 -0.11674952 0.21627012
v -0.11470035 -0.061892036 0.115129985
v -0.030397449 -0.11674952 0.21627012
v -0.122638285 -0.08488586 0.14697905
v -0.122638285 -0.08488586 0.14697905
v -0.20038114 -0.03389329 0.18866174
v -0.11470035 -0.061892036 0.115129985
v -0.14392199 0.033641968 0.11512168
v -0.11470035 -0.061892036 0.115129985
v -0.20038114 -0.03389329 0.18866174
v -0.20038114 -0.03389329 0.18866174
v -0.21095231 0.020119192 0.20486704
v -0.14392199 0.033641968 0.11512168
v -0.14392199 0.033641968 0.11512168
v -0.21095231 0.020119192 0.20486704
v -0.14585136 0.1033489 0.2008994
v -0.14585136 0.1033489 0.2008994
v -0.06903841 0.07252509 0.115129985
v -0.14392199 0.033641968 0.11512168
v -0.06903841 0.07252509 0.115129985
v -0.14585136 0.1033489 0.2008994
v -0.005918528 0.091171846 0.16215368
v -0.06903841 0.07252509 0.115129985
v -0.005918528 0.091171846 0.16215368
v 0.055778664 0.030296216 0.11512168
v 0.0402809 -0.036140848 0.115129985
v -0.06903841 0.07252509 0.115129985
v 0.055778664 0.030296216 0.11512168
v 0.055778664 0.030296216 0.11512168
v 0.14050396 -0.0130886845 0.2446297
v 0.0402809 -0.036140848 0.115129985
v 0.14050396 -0.0130886845 0.2446297
v 0.055778664 0.030296216 0.11512168
v 0.14088464 0.015144204 0.24493426
v 0.14088464 0.015144204 0.24493426
v 0.2531138 -0.05161484 0.34343734
v 0.14050396 -0.0130886845 0.2446297
v 0.2531138 -0.05161484 0.34343734
v 0.13322777 -0.035058506 0.2933331
v 0.14050396 -0.0130886845 0.2446297
v 0.23585719 -0.0021567016 0.3613423
v 0.13322777 -0.035058506 0.2933331
v 0.2531138 -0.05161484 0.34343734
v 0.2531138 -0.05161484 0.34343734
v 0.256 0.05499979 0.34712818
v 0.23585719 -0.0021567016 0.3613423
v 0.19239794 0.005854419 0.34385636
v 0.23585719 -0.0021567016 0.3613423
v 0.256 0.05499979 0.34712818
v 0.13209997 0.040220026 0.29090616
v 0.19239794 0.005854419 0.34385636
v 0.256 0.05499979 0.34712818
v 0.256 0.05499979 0.34712818
v 0.14088464 0.015144204 0.24493426
v 0.13209997 0.040220026 0.29090616
v 0.14088464 0.015144204 0.24493426
v 0.256 0.05499979 0.34712818
v 0.2531138 -0.05161484 0.34343734
v 0.14088464 0.015144204 0.24493426
v 0.055778664 0.030296216 0.11512168
v 0.13209997 0.040220026 0.29090616
v 0.055778664 0.030296216 0.11512168
v -0.005918528 0.091171846 0.16215368
v 0.13209997 0.040220026 0.29090616
v -0.04749398 0.12251085 0.21801007
v 0.13209997 0.040220026 0.29090616
v -0.005918528 0.091171846 0.16215368
v 0.13209997 0.040220026 0.29090616
v -0.04749398 0.12251085 0.21801007
v -0.105677895 0.12377758 0.2566229
v -0.105677895 0.12377758 0.2566229
v -0.04749398 0.12251085 0.21801007
v -0.14585136 0.1033489 0.2008994
v -0.105677895 0.12377758 0.2566229
v -0.14585136 0.1033489 0.2008994
v -0.16664067 0.060160894 0.34198755
v -0.12345821 0.032418706 0.39219344
v -0.105677895 0.12377758 0.2566229
v -0.16664067 0.060160894 0.34198755
v -0.16664067 0.060160894 0.34198755
v -0.20810546 0.036695752 0.36951587
v -0.12345821 0.032418706 0.39219344
v -0.13663767 -0.028015893 0.39687645
v -0.12345821 0.032418706 0.39219344
v -0.20810546 0.036695752 0.36951587
v -0.20810546 0.036695752 0.36951587
v -0.256 -0.0002676372 0.3318941
v -0.13663767 -0.028015893 0.39687645
v -0.256 -0.0002676372 0.3318941
v -0.17281935 -0.051738586 0.35453764
v -0.13663767 -0.028015893 0.39687645
v -0.17281935 -0.051738586 0.35453764
v -0.13484077 -0.113483034 0.26129156
v -0.13663767 -0.028015893 0.39687645
v -0.13484077 -0.113483034 0.26129156
v -0.06669129 -0.1012665 0.28304437
v -0.13663767 -0.028015893 0.39687645
v -0.06669129 -0.1012665 0.28304437
v -0.13484077 -0.113483034 0.26129156
v -0.091794044 -0.12377758 0.23425259
v -0.13484077 -0.113483034 0.26129156
v -0.122638285 -0.08488586 0.14697905
v -0.091794044 -0.12377758 0.23425259
v -0.17281935 -0.051738586 0.35453764
v -0.21133253 -0.0346901 0.31806168
v -0.13484077 -0.113483034 0.26129156
v -0.13484077 -0.113483034 0.26129156
v -0.21133253 -0.0346901 0.31806168
v -0.20038114 -0.03389329 0.18866174
v -0.21133253 -0.0346901 0.31806168
v -0.22317591 0.0026701046 0.29230526
v -0.20038114 -0.03389329 0.18866174
v -0.21133253 -0.0346901 0.31806168
v -0.256 -0.0002676372 0.3318941
v -0.22317591 0.0026701046 0.29230526
v -0.21038973 0.038058557 0.3191333
v -0.22317591 0.0026701046 0.29230526
v -0.256 -0.0002676372 0.3318941
v -0.22317591 0.0026701046 0.29230526
v -0.21038973 0.038058557 0.3191333
v -0.21095231 0.020119192 0.20486704
v -0.17281935 -0.051738586 0.35453764
v -0.256 -0.0002676372 0.3318941
v -0.21133253 -0.0346901 0.31806168
v -0.256 -0.0002676372 0.3318941
v -0.20810546 0.036695752 0.36951587
v -0.21038973 0.038058557 0.3191333
v -0.12345821 0.032418706 0.39219344
v -0.13663767 -0.028015893 0.39687645
v 0.04388137 -0.041124977 0.30881286
v -0.21038973 0.038058557 0.3191333
v -0.20810546 0.036695752 0.36951587
v -0.16664067 0.060160894 0.34198755
v -0.105677895 0.12377758 0.2566229
v -0.12345821 0.032418706 0.39219344
v 0.022114234 0.050613265 0.30881286
v -0.16664067 0.060160894 0.34198755
v -0.14585136 0.1033489 0.2008994
v -0.21038973 0.038058557 0.3191333
v -0.04749398 0.12251085 0.21801007
v -0.005918528 0.091171846 0.16215368
v -0.14585136 0.1033489 0.2008994
v -0.21095231 0.020119192 0.20486704
v -0.21038973 0.038058557 0.3191333
v -0.14585136 0.1033489 0.2008994
v -0.20038114 -0.03389329 0.18866174
v -0.22317591 0.0026701046 0.29230526
v -0.21095231 0.020119192 0.20486704
v -0.14392199 0.033641968 0.11512168
v -0.06903841 0.07252509 0.115129985
v -0.11470035 -0.061892036 0.115129985
v -0.122638285 -0.08488586 0.14697905
v -0.13484077 -0.113483034 0.26129156
v -0.20038114 -0.03389329 0.18866174
v -0.030397449 -0.11674952 0.21627012
v -0.091794044 -0.12377758 0.23425259
v -0.122638285 -0.08488586 0.14697905
v -0.06903841 0.07252509 0.115129985
v 0.0402809 -0.036140848 0.115129985
v -0.11470035 -0.061892036 0.115129985
v 0.14050396 -0.0130886845 0.2446297
v 0.038631495 -0.068309315 0.17795877
v 0.0402809 -0.036140848 0.115129985
v 0.14050396 -0.0130886845 0.2446297
v 0.13322777 -0.035058506 0.2933331
v 0.038631495 -0.068309315 0.17795877
v -0.030397449 -0.11674952 0.21627012
v -0.06669129 -0.1012665 0.28304437
v -0.091794044 -0.12377758 0.23425259
v -0.13663767 -0.028015893 0.39687645
v -0.06669129 -0.1012665 0.28304437
v 0.04388137 -0.041124977 0.30881286
v 0.19239794 0.005854419 0.34385636
v 0.13322777 -0.035058506 0.2933331
v 0.23585719 -0.0021567016 0.3613423
v 0.04388137 -0.041124977 0.30881286
v 0.022114234 0.050613265 0.30881286
v -0.12345821 0.032418706 0.39219344
v 0.13209997 0.040220026 0.29090616
v -0.105677895 0.12377758 0.2566229
v 0.022114234 0.050613265 0.30881286
v 0.19239794 0.005854419 0.34385636
v 0.13209997 0.040220026 0.29090616
v 0.07500697 0.038175277 0.30881286
# 210 vertices

vn 0.17519131 0.7450038 0.64364386
vn 0.17519131 0.7450038 0.64364386
vn 0.17519131 0.7450038 0.64364386
vn 0 0 1
vn 0 0 1
vn 0 0 1
vn -0.25878572 0.10157421 0.9605794
vn -0.25878572 0.10157421 0.9605794
vn -0.25878572 0.10157421 0.9605794
vn 0.14635634 -0.84560543 0.51335293
vn 0.14635634 -0.84560543 0.51335293
vn 0.14635634 -0.84560543 0.51335293
vn 0.17320156 -0.63940424 0.74910843
vn 0.17320156 -0.63940424 0.74910843
vn 0.17320156 -0.63940424 0.74910843
vn 0.27699584 -0.89194125 0.3573712
vn 0.27699584 -0.89194125 0.3573712
vn 0.27699584 -0.89194125 0.3573712
vn 0.50236416 -0.848294 -0.1674143
vn 0.50236416 -0.848294 -0.1674143
vn 0.50236416 -0.848294 -0.1674143
vn 0.35430154 -0.8361131 -0.4187904
vn 0.35430154 -0.8361131 -0.4187904
vn 0.35430154 -0.8361131 -0.4187904
vn 0.13606548 -0.81889814 -0.557577
vn 0.13606548 -0.81889814 -0.557577
vn 0.13606548 -0.81889814 -0.557577
vn 0.13583155 -0.81902343 -0.55744994
vn 0.13583155 -0.81902343 -0.55744994
vn 0.13583155 -0.81902343 -0.55744994
vn -0.64406717 -0.5349946 -0.54677075
vn -0.64406717 -0.5349946 -0.54677075
vn -0.64406717 -0.5349946 -0.54677075
vn -0.67520946 -0.20659254 -0.7081044
vn -0.67520946 -0.20659254 -0.7081044
vn -0.67520946 -0.20659254 -0.7081044
vn -0.8025736 0.021786315 -0.59615517
vn -0.8025736 0.021786315 -0.59615517
vn -0.8025736 0.021786315 -0.59615517
vn -0.7130305 0.5361851 -0.45176658
vn -0.7130305 0.5361851 -0.45176658
vn -0.7130305 0.5361851 -0.45176658
vn -0.37186778 0.71629274 -0.59045666
vn -0.37186778 0.71629274 -0.59045666
vn -0.37186778 0.71629274 -0.59045666
vn -0.015549602 0.9364464 -0.3504659
vn -0.015549602 0.9364464 -0.3504659
vn -0.015549602 0.9364464 -0.3504659
vn 0.249515 0.73762196 -0.62742025
vn 0.249515 0.73762196 -0.62742025
vn 0.249515 0.73762196 -0.62742025
vn -0.000100942336 -0.00010154927 -1
vn -0.000100942336 -0.00010154927 -1
vn -0.000100942336 -0.00010154927 -1
vn 0.7928411 -0.18501857 -0.58066446
vn 0.7928411 -0.18501857 -0.58066446
vn 0.7928411 -0.18501857 -0.58066446
vn 0.83599603 -0.005353198 -0.54870933
vn 0.83599603 -0.005353198 -0.54870933
vn 0.83599603 -0.005353198 -0.54870933
vn 0.6593888 -0.0007809633 -0.7518017
vn 0.6593888 -0.0007809633 -0.7518017
vn 0.6593888 -0.0007809633 -0.7518017
vn 0.043338336 -0.9131024 -0.4054206
vn 0.043338336 -0.9131024 -0.4054206
vn 0.043338336 -0.9131024 -0.4054206
vn -0.39792112 -0.4318658 0.80941385
vn -0.39792112 -0.4318658 0.80941385
vn -0.39792112 -0.4318658 0.80941385
vn 0.6560731 -0.043843076 0.75342286
vn 0.6560731 -0.043843076 0.75342286
vn 0.6560731 -0.043843076 0.75342286
vn -0.29984024 0.32841265 0.8956791
vn -0.29984024 0.32841265 0.8956791
vn -0.29984024 0.32841265 0.8956791
vn -0.40956077 0.47832084 0.7768328
vn -0.40956077 0.47832084 0.7768328
vn -0.40956077 0.47832084 0.7768328
vn 0.103994444 0.881353 -0.46087098
vn 0.103994444 0.881353 -0.46087098
vn 0.103994444 0.881353 -0.46087098
vn 0.662316 0.008005694 -0.74918187
vn 0.662316 0.008005694 -0.74918187
vn 0.662316 0.008005694 -0.74918187
vn 0.58810025 0.75196993 -0.2977908
vn 0.58810025 0.75196993 -0.2977908
vn 0.58810025 0.75196993 -0.2977908
vn 0.5544124 0.78197366 -0.2848582
vn 0.5544124 0.78197366 -0.2848582
vn 0.5544124 0.78197366 -0.2848582
vn 0.46095005 0.8750238 -0.14784636
vn 0.46095005 0.8750238 -0.14784636
vn 0.46095005 0.8750238 -0.14784636
vn 0.261466 0.8936716 0.36467347
vn 0.261466 0.8936716 0.36467347
vn 0.261466 0.8936716 0.36467347
vn -0.14356095 0.95812654 -0.24775767
vn -0.14356095 0.95812654 -0.24775767
vn -0.14356095 0.95812654 -0.24775767
vn -0.60551995 0.7815627 0.15001826
vn -0.60551995 0.7815627 0.15001826
vn -0.60551995 0.7815627 0.15001826
vn -0.101715766 0.8311076 0.5467303
vn -0.101715766 0.8311076 0.5467303
vn -0.101715766 0.8311076 0.5467303
vn -0.10508939 0.82939684 0.5486867
vn -0.10508939 0.82939684 0.5486867
vn -0.10508939 0.82939684 0.5486867
vn -0.25053337 0.12898451 0.959477
vn -0.25053337 0.12898451 0.959477
vn -0.25053337 0.12898451 0.959477
vn -0.5040687 -0.20162132 0.83979976
vn -0.5040687 -0.20162132 0.83979976
vn -0.5040687 -0.20162132 0.83979976
vn -0.50102943 -0.49846637 0.70746076
vn -0.50102943 -0.49846637 0.70746076
vn -0.50102943 -0.49846637 0.70746076
vn -0.068161376 -0.84439445 0.5313682
vn -0.068161376 -0.84439445 0.5313682
vn -0.068161376 -0.84439445 0.5313682
vn -0.018485496 -0.8459205 0.53298855
vn -0.018485496 -0.8459205 0.53298855
vn -0.018485496 -0.8459205 0.53298855
vn 0.034996457 -0.9141889 0.4037746
vn 0.034996457 -0.9141889 0.4037746
vn 0.034996457 -0.9141889 0.4037746
vn -0.37725347 -0.88814276 -0.26245424
vn -0.37725347 -0.88814276 -0.26245424
vn -0.37725347 -0.88814276 -0.26245424
vn -0.589178 -0.76317847 0.2653826
vn -0.589178 -0.76317847 0.2653826
vn -0.589178 -0.76317847 0.2653826
vn -0.7395024 -0.66984034 -0.06671029
vn -0.7395024 -0.66984034 -0.06671029
vn -0.7395024 -0.66984034 -0.06671029
vn -0.93264544 -0.35156214 -0.08109652
vn -0.93264544 -0.35156214 -0.08109652
vn -0.93264544 -0.35156214 -0.08109652
vn -0.61032444 -0.57158226 -0.54845047
vn -0.61032444 -0.57158226 -0.54845047
vn -0.61032444 -0.57158226 -0.54845047
vn -0.6381976 0.5980867 -0.48476398
vn -0.6381976 0.5980867 -0.48476398
vn -0.6381976 0.5980867 -0.48476398
vn -0.92521244 0.3755295 -0.054401536
vn -0.92521244 0.3755295 -0.054401536
vn -0.92521244 0.3755295 -0.054401536
vn -0.5551634 -0.80478907 0.21001965
vn -0.5551634 -0.80478907 0.21001965
vn -0.5551634 -0.80478907 0.21001965
vn -0.63435817 0.7714446 0.049627867
vn -0.63435817 0.7714446 0.049627867
vn -0.63435817 0.7714446 0.049627867
vn 0.43680134 -0.025579426 0.89919424
vn 0.43680134 -0.025579426 0.89919424
vn 0.43680134 -0.025579426 0.89919424
vn -0.46914902 0.8819653 0.045126997
vn -0.46914902 0.8819653 0.045126997
vn -0.46914902 0.8819653 0.045126997
vn 0.22415005 0.79429954 0.5646637
vn 0.22415005 0.79429954 0.5646637
vn 0.22415005 0.79429954 0.5646637
vn -0.51686496 0.8369233 0.1800278
vn -0.51686496 0.8369233 0.1800278
vn -0.51686496 0.8369233 0.1800278
vn -0.072789244 0.84570026 -0.5286709
vn -0.072789244 0.84570026 -0.5286709
vn -0.072789244 0.84570026 -0.5286709
vn -0.7864497 0.610762 -0.092015326
vn -0.7864497 0.610762 -0.092015326
vn -0.7864497 0.610762 -0.092015326
vn -0.97612 -0.14162253 -0.16472062
vn -0.97612 -0.14162253 -0.16472062
vn -0.97612 -0.14162253 -0.16472062
vn 0.00013475535 -4.577683E-05 -1
vn 0.00013475535 -4.577683E-05 -1
vn 0.00013475535 -4.577683E-05 -1
vn -0.6215814 -0.74173975 -0.2519103
vn -0.6215814 -0.74173975 -0.2519103
vn -0.6215814 -0.74173975 -0.2519103
vn -0.013309827 -0.9150687 -0.40307835
vn -0.013309827 -0.9150687 -0.40307835
vn -0.013309827 -0.9150687 -0.40307835
vn 0 0 -1
vn 0 0 -1
vn 0 0 -1
vn 0.6123507 -0.71011716 -0.34750587
vn 0.6123507 -0.71011716 -0.34750587
vn 0.6123507 -0.71011716 -0.34750587
vn 0.58576304 -0.76800776 -0.2589321
vn 0.58576304 -0.76800776 -0.2589321
vn 0.58576304 -0.76800776 -0.2589321
vn 0.20058961 -0.92474085 0.32344735
vn 0.20058961 -0.92474085 0.32344735
vn 0.20058961 -0.92474085 0.32344735
vn 0.25334126 -0.73517716 0.6287549
vn 0.25334126 -0.73517716 0.6287549
vn 0.25334126 -0.73517716 0.6287549
vn -0.4043415 -0.41910836 0.81293064
vn -0.4043415 -0.41910836 0.81293064
vn -0.4043415 -0.41910836 0.81293064
vn 0.48292485 0.11458573 0.8681323
vn 0.48292485 0.11458573 0.8681323
vn 0.48292485 0.11458573 0.8681323
vn 0.1742493 0.75515085 0.6319686
vn 0.1742493 0.75515085 0.6319686
vn 0.1742493 0.75515085 0.6319686
vn 0.109520756 0.8860974 0.45037398
vn 0.109520756 0.8860974 0.45037398
vn 0.109520756 0.8860974 0.45037398
# 210 vertex normals

usemtl mat_32765631
s 4
f 41//41 42//42 43//43
f 44//44 45//45 46//46
f 47//47 48//48 49//49
f 50//50 51//51 52//52
f 53//53 54//54 55//55
f 56//56 57//57 58//58
f 59//59 60//60 61//61
f 62//62 63//63 64//64
f 65//65 66//66 67//67
f 68//68 69//69 70//70
f 71//71 72//72 73//73
f 74//74 75//75 76//76
f 77//77 78//78 79//79
f 80//80 81//81 82//82
f 83//83 84//84 85//85
f 86//86 87//87 88//88
f 89//89 90//90 91//91
f 92//92 93//93 94//94
f 95//95 96//96 97//97
f 98//98 99//99 100//100
f 101//101 102//102 103//103
f 104//104 105//105 106//106
f 107//107 108//108 109//109
f 110//110 111//111 112//112
f 113//113 114//114 115//115
f 116//116 117//117 118//118
f 119//119 120//120 121//121
f 122//122 123//123 124//124
f 125//125 126//126 127//127
f 128//128 129//129 130//130
f 131//131 132//132 133//133
f 134//134 135//135 136//136
f 137//137 138//138 139//139
f 140//140 141//141 142//142
f 143//143 144//144 145//145
f 146//146 147//147 148//148
f 149//149 150//150 151//151
f 152//152 153//153 154//154
f 155//155 156//156 157//157
f 158//158 159//159 160//160
f 161//161 162//162 163//163
f 164//164 165//165 166//166
f 167//167 168//168 169//169
f 170//170 171//171 172//172
f 173//173 174//174 175//175
f 176//176 177//177 178//178
f 179//179 180//180 181//181
f 182//182 183//183 184//184
f 185//185 186//186 187//187
f 188//188 189//189 190//190
f 191//191 192//192 193//193
f 194//194 195//195 196//196
f 197//197 198//198 199//199
f 200//200 201//201 202//202
f 203//203 204//204 205//205
f 206//206 207//207 208//208
f 209//209 210//210 211//211
f 212//212 213//213 214//214
f 215//215 216//216 217//217
f 218//218 219//219 220//220
f 221//221 222//222 223//223
f 224//224 225//225 226//226
f 227//227 228//228 229//229
f 230//230 231//231 232//232
f 233//233 234//234 235//235
f 236//236 237//237 238//238
f 239//239 240//240 241//241
f 242//242 243//243 244//244
f 245//245 246//246 247//247
f 248//248 249//249 250//250
#70 polygons

